<?xml version="1.0" encoding="UTF-8" standalone="no"?>
<!DOCTYPE svg PUBLIC "-//W3C//DTD SVG 1.1//EN"
 "http://www.w3.org/Graphics/SVG/1.1/DTD/svg11.dtd">
<!-- Generated by graphviz version 2.40.1 (20161225.0304)
 -->
<!-- Title: %3 Pages: 1 -->
<svg width="1595pt" height="213pt"
 viewBox="0.00 0.00 1595.00 213.00" xmlns="http://www.w3.org/2000/svg" xmlns:xlink="http://www.w3.org/1999/xlink">
<g id="graph0" class="graph" transform="scale(1 1) rotate(0) translate(4 209)">
<title>%3</title>
<polygon fill="#ffffff" stroke="transparent" points="-4,4 -4,-209 1591,-209 1591,4 -4,4"/>
<!-- s1a_33NWB_vv_DES_007_20200108txxxxxx -->
<g id="node1" class="node">
<title>s1a_33NWB_vv_DES_007_20200108txxxxxx</title>
<polygon fill="none" stroke="#000000" points="1587,-83 1315,-83 1315,-47 1587,-47 1587,-83"/>
<text text-anchor="middle" x="1451" y="-61.3" font-family="Times,serif" font-size="14.00" fill="#000000">s1a_33NWB_vv_DES_007_20200108txxxxxx</text>
</g>
<!-- s1a_33NWB_vv_DES_007_20200108t044150 -->
<g id="node2" class="node">
<title>s1a_33NWB_vv_DES_007_20200108t044150</title>
<polygon fill="none" stroke="#000000" points="1279,-90 1007,-90 1007,-54 1279,-54 1279,-90"/>
<text text-anchor="middle" x="1143" y="-68.3" font-family="Times,serif" font-size="14.00" fill="#000000">s1a_33NWB_vv_DES_007_20200108t044150</text>
</g>
<!-- s1a_33NWB_vv_DES_007_20200108t044150&#45;&gt;s1a_33NWB_vv_DES_007_20200108txxxxxx -->
<g id="edge1" class="edge">
<title>s1a_33NWB_vv_DES_007_20200108t044150&#45;&gt;s1a_33NWB_vv_DES_007_20200108txxxxxx</title>
<path fill="none" stroke="#000000" d="M1279.4383,-68.8991C1287.7892,-68.7093 1296.2098,-68.518 1304.6002,-68.3273"/>
<polygon fill="#000000" stroke="#000000" points="1304.8952,-71.8216 1314.8131,-68.0952 1304.7361,-64.8234 1304.8952,-71.8216"/>
</g>
<!-- s1a_33NWB_vv_DES_007_20200108t044215 -->
<g id="node3" class="node">
<title>s1a_33NWB_vv_DES_007_20200108t044215</title>
<polygon fill="none" stroke="#000000" points="1279,-36 1007,-36 1007,0 1279,0 1279,-36"/>
<text text-anchor="middle" x="1143" y="-14.3" font-family="Times,serif" font-size="14.00" fill="#000000">s1a_33NWB_vv_DES_007_20200108t044215</text>
</g>
<!-- s1a_33NWB_vv_DES_007_20200108t044215&#45;&gt;s1a_33NWB_vv_DES_007_20200108txxxxxx -->
<g id="edge2" class="edge">
<title>s1a_33NWB_vv_DES_007_20200108t044215&#45;&gt;s1a_33NWB_vv_DES_007_20200108txxxxxx</title>
<path fill="none" stroke="#000000" d="M1261.2,-36.037C1281.3916,-39.1182 1302.4524,-42.332 1322.8872,-45.4503"/>
<polygon fill="#000000" stroke="#000000" points="1322.4483,-48.9238 1332.8619,-46.9724 1323.5044,-42.0039 1322.4483,-48.9238"/>
</g>
<!-- s1a_33NWB_vh_DES_007_20200108txxxxxx -->
<g id="node4" class="node">
<title>s1a_33NWB_vh_DES_007_20200108txxxxxx</title>
<polygon fill="none" stroke="#000000" points="1587,-164 1315,-164 1315,-128 1587,-128 1587,-164"/>
<text text-anchor="middle" x="1451" y="-142.3" font-family="Times,serif" font-size="14.00" fill="#000000">s1a_33NWB_vh_DES_007_20200108txxxxxx</text>
</g>
<!-- s1a_33NWB_vh_DES_007_20200108t044150 -->
<g id="node5" class="node">
<title>s1a_33NWB_vh_DES_007_20200108t044150</title>
<polygon fill="none" stroke="#000000" points="1279,-205 1007,-205 1007,-169 1279,-169 1279,-205"/>
<text text-anchor="middle" x="1143" y="-183.3" font-family="Times,serif" font-size="14.00" fill="#000000">s1a_33NWB_vh_DES_007_20200108t044150</text>
</g>
<!-- s1a_33NWB_vh_DES_007_20200108t044150&#45;&gt;s1a_33NWB_vh_DES_007_20200108txxxxxx -->
<g id="edge3" class="edge">
<title>s1a_33NWB_vh_DES_007_20200108t044150&#45;&gt;s1a_33NWB_vh_DES_007_20200108txxxxxx</title>
<path fill="none" stroke="#000000" d="M1278.5415,-168.9571C1287.4534,-167.7708 1296.4489,-166.5734 1305.4064,-165.381"/>
<polygon fill="#000000" stroke="#000000" points="1306.0463,-168.8267 1315.497,-164.0377 1305.1226,-161.888 1306.0463,-168.8267"/>
</g>
<!-- s1a_33NWB_vh_DES_007_20200108t044215 -->
<g id="node6" class="node">
<title>s1a_33NWB_vh_DES_007_20200108t044215</title>
<polygon fill="none" stroke="#000000" points="1279,-151 1007,-151 1007,-115 1279,-115 1279,-151"/>
<text text-anchor="middle" x="1143" y="-129.3" font-family="Times,serif" font-size="14.00" fill="#000000">s1a_33NWB_vh_DES_007_20200108t044215</text>
</g>
<!-- s1a_33NWB_vh_DES_007_20200108t044215&#45;&gt;s1a_33NWB_vh_DES_007_20200108txxxxxx -->
<g id="edge4" class="edge">
<title>s1a_33NWB_vh_DES_007_20200108t044215&#45;&gt;s1a_33NWB_vh_DES_007_20200108txxxxxx</title>
<path fill="none" stroke="#000000" d="M1279.4383,-138.7588C1287.7892,-139.1112 1296.2098,-139.4666 1304.6002,-139.8208"/>
<polygon fill="#000000" stroke="#000000" points="1304.6744,-143.3269 1314.8131,-140.2519 1304.9696,-136.3332 1304.6744,-143.3269"/>
</g>
<!-- s1a_iw_grd_vh_20200108t044215_20200108t044240_030704_038506_002_OrthoReady -->
<g id="node7" class="node">
<title>s1a_iw_grd_vh_20200108t044215_20200108t044240_030704_038506_002_OrthoReady</title>
<polygon fill="none" stroke="#000000" points="971,-151 467,-151 467,-115 971,-115 971,-151"/>
<text text-anchor="middle" x="719" y="-129.3" font-family="Times,serif" font-size="14.00" fill="#000000">s1a_iw_grd_vh_20200108t044215_20200108t044240_030704_038506_002_OrthoReady</text>
</g>
<!-- s1a_iw_grd_vh_20200108t044215_20200108t044240_030704_038506_002_OrthoReady&#45;&gt;s1a_33NWB_vh_DES_007_20200108t044215 -->
<g id="edge5" class="edge">
<title>s1a_iw_grd_vh_20200108t044215_20200108t044240_030704_038506_002_OrthoReady&#45;&gt;s1a_33NWB_vh_DES_007_20200108t044215</title>
<path fill="none" stroke="#000000" d="M971.1542,-133C979.8146,-133 988.3822,-133 996.7964,-133"/>
<polygon fill="#000000" stroke="#000000" points="996.9796,-136.5001 1006.9796,-133 996.9795,-129.5001 996.9796,-136.5001"/>
</g>
<!-- s1a_iw_grd_vh_20200108t044150_20200108t044215_030704_038506_002_OrthoReady -->
<g id="node8" class="node">
<title>s1a_iw_grd_vh_20200108t044150_20200108t044215_030704_038506_002_OrthoReady</title>
<polygon fill="none" stroke="#000000" points="971,-205 467,-205 467,-169 971,-169 971,-205"/>
<text text-anchor="middle" x="719" y="-183.3" font-family="Times,serif" font-size="14.00" fill="#000000">s1a_iw_grd_vh_20200108t044150_20200108t044215_030704_038506_002_OrthoReady</text>
</g>
<!-- s1a_iw_grd_vh_20200108t044150_20200108t044215_030704_038506_002_OrthoReady&#45;&gt;s1a_33NWB_vh_DES_007_20200108t044150 -->
<g id="edge6" class="edge">
<title>s1a_iw_grd_vh_20200108t044150_20200108t044215_030704_038506_002_OrthoReady&#45;&gt;s1a_33NWB_vh_DES_007_20200108t044150</title>
<path fill="none" stroke="#000000" d="M971.1542,-187C979.8146,-187 988.3822,-187 996.7964,-187"/>
<polygon fill="#000000" stroke="#000000" points="996.9796,-190.5001 1006.9796,-187 996.9795,-183.5001 996.9796,-190.5001"/>
</g>
<!-- s1a_iw_grd_vv_20200108t044150_20200108t044215_030704_038506_001_OrthoReady -->
<g id="node9" class="node">
<title>s1a_iw_grd_vv_20200108t044150_20200108t044215_030704_038506_001_OrthoReady</title>
<polygon fill="none" stroke="#000000" points="971,-90 467,-90 467,-54 971,-54 971,-90"/>
<text text-anchor="middle" x="719" y="-68.3" font-family="Times,serif" font-size="14.00" fill="#000000">s1a_iw_grd_vv_20200108t044150_20200108t044215_030704_038506_001_OrthoReady</text>
</g>
<!-- s1a_iw_grd_vv_20200108t044150_20200108t044215_030704_038506_001_OrthoReady&#45;&gt;s1a_33NWB_vv_DES_007_20200108t044150 -->
<g id="edge7" class="edge">
<title>s1a_iw_grd_vv_20200108t044150_20200108t044215_030704_038506_001_OrthoReady&#45;&gt;s1a_33NWB_vv_DES_007_20200108t044150</title>
<path fill="none" stroke="#000000" d="M971.1542,-72C979.8146,-72 988.3822,-72 996.7964,-72"/>
<polygon fill="#000000" stroke="#000000" points="996.9796,-75.5001 1006.9796,-72 996.9795,-68.5001 996.9796,-75.5001"/>
</g>
<!-- s1a_iw_grd_vv_20200108t044215_20200108t044240_030704_038506_001_OrthoReady -->
<g id="node10" class="node">
<title>s1a_iw_grd_vv_20200108t044215_20200108t044240_030704_038506_001_OrthoReady</title>
<polygon fill="none" stroke="#000000" points="971,-36 467,-36 467,0 971,0 971,-36"/>
<text text-anchor="middle" x="719" y="-14.3" font-family="Times,serif" font-size="14.00" fill="#000000">s1a_iw_grd_vv_20200108t044215_20200108t044240_030704_038506_001_OrthoReady</text>
</g>
<!-- s1a_iw_grd_vv_20200108t044215_20200108t044240_030704_038506_001_OrthoReady&#45;&gt;s1a_33NWB_vv_DES_007_20200108t044215 -->
<g id="edge8" class="edge">
<title>s1a_iw_grd_vv_20200108t044215_20200108t044240_030704_038506_001_OrthoReady&#45;&gt;s1a_33NWB_vv_DES_007_20200108t044215</title>
<path fill="none" stroke="#000000" d="M971.1542,-18C979.8146,-18 988.3822,-18 996.7964,-18"/>
<polygon fill="#000000" stroke="#000000" points="996.9796,-21.5001 1006.9796,-18 996.9795,-14.5001 996.9796,-21.5001"/>
</g>
<!-- s1a_iw_grd_vv_20200108t044215_20200108t044240_030704_038506_001 -->
<g id="node11" class="node">
<title>s1a_iw_grd_vv_20200108t044215_20200108t044240_030704_038506_001</title>
<polygon fill="none" stroke="#000000" points="431,-36 0,-36 0,0 431,0 431,-36"/>
<text text-anchor="middle" x="215.5" y="-14.3" font-family="Times,serif" font-size="14.00" fill="#000000">s1a_iw_grd_vv_20200108t044215_20200108t044240_030704_038506_001</text>
</g>
<!-- s1a_iw_grd_vv_20200108t044215_20200108t044240_030704_038506_001&#45;&gt;s1a_iw_grd_vv_20200108t044215_20200108t044240_030704_038506_001_OrthoReady -->
<g id="edge9" class="edge">
<title>s1a_iw_grd_vv_20200108t044215_20200108t044240_030704_038506_001&#45;&gt;s1a_iw_grd_vv_20200108t044215_20200108t044240_030704_038506_001_OrthoReady</title>
<path fill="none" stroke="#000000" d="M431.2204,-18C439.5698,-18 447.973,-18 456.3926,-18"/>
<polygon fill="#000000" stroke="#000000" points="456.6681,-21.5001 466.668,-18 456.668,-14.5001 456.6681,-21.5001"/>
</g>
<!-- s1a_iw_grd_vh_20200108t044150_20200108t044215_030704_038506_002 -->
<g id="node12" class="node">
<title>s1a_iw_grd_vh_20200108t044150_20200108t044215_030704_038506_002</title>
<polygon fill="none" stroke="#000000" points="431,-205 0,-205 0,-169 431,-169 431,-205"/>
<text text-anchor="middle" x="215.5" y="-183.3" font-family="Times,serif" font-size="14.00" fill="#000000">s1a_iw_grd_vh_20200108t044150_20200108t044215_030704_038506_002</text>
</g>
<!-- s1a_iw_grd_vh_20200108t044150_20200108t044215_030704_038506_002&#45;&gt;s1a_iw_grd_vh_20200108t044150_20200108t044215_030704_038506_002_OrthoReady -->
<g id="edge10" class="edge">
<title>s1a_iw_grd_vh_20200108t044150_20200108t044215_030704_038506_002&#45;&gt;s1a_iw_grd_vh_20200108t044150_20200108t044215_030704_038506_002_OrthoReady</title>
<path fill="none" stroke="#000000" d="M431.2204,-187C439.5698,-187 447.973,-187 456.3926,-187"/>
<polygon fill="#000000" stroke="#000000" points="456.6681,-190.5001 466.668,-187 456.668,-183.5001 456.6681,-190.5001"/>
</g>
<!-- s1a_iw_grd_vv_20200108t044150_20200108t044215_030704_038506_001 -->
<g id="node13" class="node">
<title>s1a_iw_grd_vv_20200108t044150_20200108t044215_030704_038506_001</title>
<polygon fill="none" stroke="#000000" points="431,-90 0,-90 0,-54 431,-54 431,-90"/>
<text text-anchor="middle" x="215.5" y="-68.3" font-family="Times,serif" font-size="14.00" fill="#000000">s1a_iw_grd_vv_20200108t044150_20200108t044215_030704_038506_001</text>
</g>
<!-- s1a_iw_grd_vv_20200108t044150_20200108t044215_030704_038506_001&#45;&gt;s1a_iw_grd_vv_20200108t044150_20200108t044215_030704_038506_001_OrthoReady -->
<g id="edge11" class="edge">
<title>s1a_iw_grd_vv_20200108t044150_20200108t044215_030704_038506_001&#45;&gt;s1a_iw_grd_vv_20200108t044150_20200108t044215_030704_038506_001_OrthoReady</title>
<path fill="none" stroke="#000000" d="M431.2204,-72C439.5698,-72 447.973,-72 456.3926,-72"/>
<polygon fill="#000000" stroke="#000000" points="456.6681,-75.5001 466.668,-72 456.668,-68.5001 456.6681,-75.5001"/>
</g>
<!-- s1a_iw_grd_vh_20200108t044215_20200108t044240_030704_038506_002 -->
<g id="node14" class="node">
<title>s1a_iw_grd_vh_20200108t044215_20200108t044240_030704_038506_002</title>
<polygon fill="none" stroke="#000000" points="431,-151 0,-151 0,-115 431,-115 431,-151"/>
<text text-anchor="middle" x="215.5" y="-129.3" font-family="Times,serif" font-size="14.00" fill="#000000">s1a_iw_grd_vh_20200108t044215_20200108t044240_030704_038506_002</text>
</g>
<!-- s1a_iw_grd_vh_20200108t044215_20200108t044240_030704_038506_002&#45;&gt;s1a_iw_grd_vh_20200108t044215_20200108t044240_030704_038506_002_OrthoReady -->
<g id="edge12" class="edge">
<title>s1a_iw_grd_vh_20200108t044215_20200108t044240_030704_038506_002&#45;&gt;s1a_iw_grd_vh_20200108t044215_20200108t044240_030704_038506_002_OrthoReady</title>
<path fill="none" stroke="#000000" d="M431.2204,-133C439.5698,-133 447.973,-133 456.3926,-133"/>
<polygon fill="#000000" stroke="#000000" points="456.6681,-136.5001 466.668,-133 456.668,-129.5001 456.6681,-136.5001"/>
</g>
</g>
</svg>
